# xmcd
#
# Track frame offsets:
#	150
#	19754
#	37955
#	51588
#	69092
#	84525
#	98467
#	114353
#	132161
#	151585
#	165511
#	187505
#	206073
#
# Disc length: 2987 seconds
#
# Revision: 7
# Processed by: cddbd v1.5.1PL2 Copyright (c) Steve Scherf et al.
# Submitted via: dBpowerAMP V4.0
#
DISCID=910ba90d
DTITLE=Flavio and Gabriel - Demo CD
DYEAR=2006
DGENRE=Country
TTITLE0=Eu Sei O Que É Melhor Pra Mim
TTITLE1=Nada Sério (Jaiminho - B.Herança)
TTITLE2=Hey Ho (Versão Brasileira)
TTITLE3=Mí Na Espiga (Marco Brasil)
TTITLE4=Final De Semana
TTITLE5=Vida De Solteiro
TTITLE6=Aceite A Verdade (Marco Brasil)
TTITLE7=Pote De Creme
TTITLE8=Cara Na Porta
TTITLE9=Não Toque Nesse Assunto
TTITLE10=É Agora (Felipe Lorenzo)
TTITLE11=Sacada
TTITLE12=Faixa Bonus
EXTD=
EXTT0=
EXTT1=
EXTT2=
EXTT3=
EXTT4=
EXTT5=
EXTT6=
EXTT7=
EXTT8=
EXTT9=
EXTT10=
EXTT11=
EXTT12=
PLAYORDER=
